<svg xmlns="http://www.w3.org/2000/svg" viewBox="0 0 954.7 197.46"><defs><style>.cls-1{fill:#fff;}.cls-2{opacity:0.85;}.cls-3{opacity:0.7;}.cls-4{fill:#f2f2f2;}</style></defs><title>资源 7</title><g id="图层_2" data-name="图层 2"><g id="ICON-white-2"><g id="icon"><polygon id="左上" class="cls-1" points="57.74 0 0 0 0 197.46 6.12 197.46 86.91 53.28 57.74 0"/><g id="右" class="cls-2"><path class="cls-1" d="M73.31,0H57.74L125.2,123.2h62.65a102,102,0,0,0,2.85-24.47C190.7,2,73.31,0,73.31,0Z"/></g><g id="下" class="cls-3"><path class="cls-4" d="M47.73,123.2,6.12,197.46H73.31S170,195.83,187.87,123.2Z"/></g></g><path class="cls-1" d="M235.5,59.54h31.42q11.77,0,18.22,2.33Q297,66.19,301,77.75a58.93,58.93,0,0,1,3,19,60.81,60.81,0,0,1-2.88,18.88q-2.89,9.11-9.55,13.44a26.43,26.43,0,0,1-9.28,3.61,91.3,91.3,0,0,1-15.38.94H235.5Zm15.77,13.21v47.64h15.65q10.33,0,14.33-4.56a21.7,21.7,0,0,0,3.94-8.1,40,40,0,0,0,1.5-11.11,38.33,38.33,0,0,0-1.78-12,18.77,18.77,0,0,0-4.66-8.11q-4.22-3.76-13.33-3.77Z"/><path class="cls-1" d="M352,100.73c0-3.77-.76-6.33-2.28-7.66s-4.53-2-9.05-2H315.56V79.52h25.09c4.52,0,7.63.1,9.33.28a30.8,30.8,0,0,1,5.22,1.06q12.33,4.65,11.66,22.31V133.6H335.55a90.12,90.12,0,0,1-11.66-.5,14.65,14.65,0,0,1-5.67-2q-6.54-4.44-6.55-13.44a18.28,18.28,0,0,1,2.61-9.72,13.31,13.31,0,0,1,6.94-5.83q3.78-1.32,12.55-1.33Zm0,11.55H332.33a5.88,5.88,0,0,0-4.06,1.33,4.66,4.66,0,0,0-1.5,3.67,4,4,0,0,0,1.84,3.66q1.83,1.11,6.27,1.11H352Z"/><path class="cls-1" d="M380.74,79.52h26a51.76,51.76,0,0,1,11.44,1,19.59,19.59,0,0,1,7.44,3.72q9.66,7.55,9.66,23.2,0,11.89-7.11,19.21a21.32,21.32,0,0,1-8.16,5.33,33.35,33.35,0,0,1-11.27,1.67h-13.1v20.32H380.74Zm14.88,11.55v31h9.1q7.23,0,10.55-3.11,4.67-4.11,4.67-12.66,0-7.32-3.67-11.27t-10.55-3.94Z"/><path class="cls-1" d="M446.14,79.52h26a51.76,51.76,0,0,1,11.44,1A19.59,19.59,0,0,1,491,84.19q9.66,7.55,9.66,23.2,0,11.89-7.1,19.21a21.28,21.28,0,0,1-8.17,5.33,33.31,33.31,0,0,1-11.27,1.67H461v20.32H446.14ZM461,91.07v31h9.11q7.22,0,10.55-3.11,4.65-4.11,4.66-12.66,0-7.32-3.67-11.27t-10.54-3.94Z"/><path class="cls-1" d="M511,59.54h15.66v41.64q.33,7.88.66,10.43.78,5.11,4.89,6.94t14.43,1.84h15.1V133.6H545q-11.9,0-17.21-1.33-12.22-3.56-15.55-15.55Q511,112.06,511,101.18Z"/><path class="cls-1" d="M614.81,100.73v11.55H583.5q.43,5.32,3.44,7.55t9.77,2.22h18.1V133.6H595.05a38.8,38.8,0,0,1-10.5-1.17,23.18,23.18,0,0,1-7.6-3.83q-9.88-7.66-9.89-22.76a28.71,28.71,0,0,1,5.22-17.1,20.09,20.09,0,0,1,8.55-7.11q5-2.1,13.11-2.11h20.87V91.07H595.05c-4.08,0-6.93.69-8.55,2.05s-2.63,3.91-3,7.61Z"/><path class="cls-1" d="M664.22,100.73c0-3.77-.76-6.33-2.27-7.66s-4.54-2-9.05-2H627.8V79.52h25.1c4.51,0,7.62.1,9.33.28a30.5,30.5,0,0,1,5.21,1.06q12.33,4.65,11.66,22.31V133.6H647.79a90.23,90.23,0,0,1-11.66-.5,14.6,14.6,0,0,1-5.66-2q-6.56-4.44-6.55-13.44a18.28,18.28,0,0,1,2.61-9.72,13.24,13.24,0,0,1,6.94-5.83q3.76-1.32,12.54-1.33Zm0,11.55H644.57a5.87,5.87,0,0,0-4.05,1.33,4.66,4.66,0,0,0-1.5,3.67,4,4,0,0,0,1.83,3.66q1.83,1.11,6.27,1.11h17.1Z"/><path class="cls-1" d="M693,79.52h22a44.89,44.89,0,0,1,10.49,1,14.19,14.19,0,0,1,6.17,3.16,12.09,12.09,0,0,1,3.44,5.55,35.31,35.31,0,0,1,1,9.55V104H721.74v-2.89c0-3.84-.66-6.47-2-7.88s-3.88-2.11-7.66-2.11h-4.22V133.6H693Z"/><path class="cls-1" d="M745,79.52H773.6a38.82,38.82,0,0,1,9.83,1,15.72,15.72,0,0,1,6.16,3.38q5.65,5.22,5.66,16.44V133.6H780.37v-35c0-2.66-.59-4.59-1.77-5.77s-3.15-1.78-5.89-1.78H759.83V133.6H745Z"/><path class="cls-1" d="M809.13,74V59.54H824V74Zm0,5.55H824V133.6H809.13Z"/><path class="cls-1" d="M838.67,79.52h28.65a38.73,38.73,0,0,1,9.82,1,15.75,15.75,0,0,1,6.17,3.38Q889,89.07,889,100.29V133.6H874.09v-35c0-2.66-.59-4.59-1.78-5.77s-3.15-1.78-5.88-1.78H853.55V133.6H838.67Z"/><path class="cls-1" d="M954.7,79.52v53.75a28.61,28.61,0,0,1-1.05,8.1,17.14,17.14,0,0,1-3,6,13.06,13.06,0,0,1-6.17,4.27,35.88,35.88,0,0,1-10.49,1.17H904.29V141.26h27.65q4.89,0,6.39-1.5t1.49-6.16H926.17a35.5,35.5,0,0,1-10.83-1.39,20.39,20.39,0,0,1-7.72-4.61q-8.1-7.65-8.1-21.09,0-15.33,9.88-22.32a22.81,22.81,0,0,1,7.49-3.61,39.48,39.48,0,0,1,10.05-1.06ZM939.82,91.07H927.5q-12.88,0-12.88,15.55,0,7.55,3.5,11.49t10.16,3.94h11.54Z"/></g></g></svg>